<svg width="52" height="52" viewBox="0 0 52 52" fill="none" xmlns="http://www.w3.org/2000/svg">
<g clip-path="url(#clip0_201_268)">
<path d="M52 26C52 11.6417 40.3583 0 26 0C11.6417 0 0 11.6417 0 26C0 38.9762 9.5064 49.7331 21.9378 51.6856V33.5174H15.3346V26H21.9378V20.2706C21.9378 13.755 25.8208 10.1536 31.7587 10.1536C34.6033 10.1536 37.5795 10.6618 37.5795 10.6618V17.0603H34.2998C31.0713 17.0603 30.0622 19.064 30.0622 21.1225V26H37.2724L36.1207 33.5174H30.0622V51.6856C42.4936 49.7367 52 38.9799 52 26Z" fill="#F1E9DB"/>
<path d="M36.1201 33.5171L37.2718 25.9998H30.0616V21.1222C30.0616 19.0674 31.0671 17.0601 34.2992 17.0601H37.579V10.6615C37.579 10.6615 34.6027 10.1533 31.7581 10.1533C25.8203 10.1533 21.9373 13.7511 21.9373 20.2703V25.9998H15.334V33.5171H21.9373V51.6853C23.2609 51.8937 24.6173 51.9998 25.9994 51.9998C27.3815 51.9998 28.738 51.8901 30.0616 51.6853V33.5171H36.1201Z" fill="#4B5E50"/>
</g>
<defs>
<clipPath id="clip0_201_268">
<rect width="52" height="52" fill="white"/>
</clipPath>
</defs>
</svg>
