<svg width="259" height="68" viewBox="0 0 259 68" fill="none" xmlns="http://www.w3.org/2000/svg">
<g filter="url(#filter0_d_103_574)">
<path d="M31.7692 45.1302H20.3195L18.7441 50.5H8.47041L20.6967 17.9704H31.6583L43.8846 50.5H33.3669L31.7692 45.1302ZM29.6612 38.0962L26.0666 26.4024L22.4941 38.0962H29.6612ZM54.7574 34.568L46.1257 33.6583C46.4512 32.1494 46.9172 30.966 47.5237 30.108C48.145 29.2352 49.0325 28.4808 50.1864 27.8447C51.0148 27.3861 52.1538 27.0311 53.6035 26.7796C55.0533 26.5281 56.6213 26.4024 58.3077 26.4024C61.0148 26.4024 63.1893 26.5577 64.8314 26.8683C66.4734 27.1642 67.8417 27.7929 68.9364 28.7544C69.7056 29.4201 70.3121 30.3669 70.7559 31.5947C71.1997 32.8077 71.4216 33.9689 71.4216 35.0784V45.4852C71.4216 46.5947 71.4882 47.4675 71.6213 48.1036C71.7692 48.7249 72.0799 49.5237 72.5533 50.5H64.0769C63.7367 49.8935 63.5148 49.4349 63.4112 49.1243C63.3077 48.7988 63.2041 48.2959 63.1006 47.6154C61.9172 48.7544 60.7411 49.568 59.5725 50.0562C57.9749 50.7071 56.1183 51.0325 54.003 51.0325C51.1923 51.0325 49.0547 50.3817 47.5902 49.0799C46.1405 47.7781 45.4157 46.1731 45.4157 44.2648C45.4157 42.4749 45.9408 41.003 46.9911 39.8491C48.0414 38.6953 49.9793 37.8373 52.8047 37.2751C56.1923 36.5947 58.3891 36.1213 59.395 35.855C60.4009 35.574 61.466 35.2115 62.5902 34.7678C62.5902 33.6583 62.3609 32.8817 61.9024 32.4379C61.4438 31.9941 60.6376 31.7722 59.4837 31.7722C58.0044 31.7722 56.895 32.0089 56.1553 32.4822C55.5784 32.8521 55.1124 33.5473 54.7574 34.568ZM62.5902 39.3166C61.3476 39.7604 60.0533 40.1524 58.7071 40.4926C56.8728 40.9808 55.7115 41.4615 55.2234 41.9349C54.7204 42.4231 54.4689 42.9778 54.4689 43.5991C54.4689 44.3092 54.713 44.8935 55.2012 45.3521C55.7041 45.7959 56.4364 46.0178 57.3979 46.0178C58.4038 46.0178 59.3358 45.7737 60.1938 45.2855C61.0666 44.7973 61.6805 44.2056 62.0355 43.5104C62.4053 42.8003 62.5902 41.8831 62.5902 40.7589V39.3166ZM77.324 59.4645V26.9349H85.7781V30.4186C86.9467 28.9541 88.0192 27.963 88.9956 27.4453C90.3121 26.75 91.7692 26.4024 93.3669 26.4024C96.5177 26.4024 98.9512 27.608 100.667 30.0192C102.398 32.4305 103.263 35.4112 103.263 38.9615C103.263 42.8817 102.324 45.8772 100.445 47.9482C98.5666 50.0044 96.1923 51.0325 93.3225 51.0325C91.9319 51.0325 90.6598 50.7959 89.5059 50.3225C88.3669 49.8491 87.3462 49.1464 86.4438 48.2145V59.4645H77.324ZM86.3772 38.784C86.3772 40.6479 86.7692 42.0311 87.5533 42.9334C88.3373 43.8358 89.3284 44.287 90.5266 44.287C91.5769 44.287 92.4571 43.858 93.1672 43C93.8772 42.1272 94.2322 40.6553 94.2322 38.5843C94.2322 36.676 93.8624 35.2781 93.1228 34.3905C92.3831 33.4882 91.4808 33.037 90.4157 33.037C89.2618 33.037 88.3003 33.4882 87.5311 34.3905C86.7618 35.2929 86.3772 36.7574 86.3772 38.784ZM107.635 59.4645V26.9349H116.089V30.4186C117.257 28.9541 118.33 27.963 119.306 27.4453C120.623 26.75 122.08 26.4024 123.678 26.4024C126.828 26.4024 129.262 27.608 130.978 30.0192C132.709 32.4305 133.574 35.4112 133.574 38.9615C133.574 42.8817 132.635 45.8772 130.756 47.9482C128.877 50.0044 126.503 51.0325 123.633 51.0325C122.243 51.0325 120.97 50.7959 119.817 50.3225C118.678 49.8491 117.657 49.1464 116.754 48.2145V59.4645H107.635ZM116.688 38.784C116.688 40.6479 117.08 42.0311 117.864 42.9334C118.648 43.8358 119.639 44.287 120.837 44.287C121.888 44.287 122.768 43.858 123.478 43C124.188 42.1272 124.543 40.6553 124.543 38.5843C124.543 36.676 124.173 35.2781 123.433 34.3905C122.694 33.4882 121.791 33.037 120.726 33.037C119.572 33.037 118.611 33.4882 117.842 34.3905C117.072 35.2929 116.688 36.7574 116.688 38.784ZM237.021 40.9586H218.914C219.077 42.4083 219.469 43.4882 220.09 44.1982C220.963 45.2189 222.102 45.7293 223.507 45.7293C224.395 45.7293 225.238 45.5074 226.037 45.0636C226.525 44.7825 227.05 44.287 227.612 43.5769L236.51 44.3979C235.149 46.7648 233.507 48.466 231.584 49.5015C229.661 50.5222 226.902 51.0325 223.308 51.0325C220.186 51.0325 217.731 50.5962 215.941 49.7234C214.151 48.8358 212.664 47.4379 211.481 45.5296C210.312 43.6065 209.728 41.3506 209.728 38.7618C209.728 35.0784 210.904 32.0976 213.256 29.8195C215.623 27.5414 218.885 26.4024 223.041 26.4024C226.414 26.4024 229.077 26.9127 231.03 27.9334C232.982 28.9541 234.469 30.4334 235.49 32.3713C236.51 34.3092 237.021 36.8314 237.021 39.9379V40.9586ZM227.834 36.6317C227.657 34.8861 227.183 33.6361 226.414 32.8817C225.66 32.1272 224.661 31.75 223.419 31.75C221.984 31.75 220.837 32.3195 219.979 33.4586C219.432 34.1686 219.084 35.2263 218.936 36.6317H227.834ZM241.481 17.9704H250.534V50.5H241.481V17.9704Z" fill="white"/>
<path d="M146.133 34.568L137.501 33.6583C137.827 32.1494 138.293 30.966 138.899 30.108C139.521 29.2352 140.408 28.4808 141.562 27.8447C142.391 27.3861 143.53 27.0311 144.979 26.7796C146.429 26.5281 147.997 26.4024 149.683 26.4024C152.391 26.4024 154.565 26.5577 156.207 26.8683C157.849 27.1642 159.217 27.7929 160.312 28.7544C161.081 29.4201 161.688 30.3669 162.132 31.5947C162.575 32.8077 162.797 33.9689 162.797 35.0784V45.4852C162.797 46.5947 162.864 47.4675 162.997 48.1036C163.145 48.7249 163.456 49.5237 163.929 50.5H155.453C155.112 49.8935 154.891 49.4349 154.787 49.1243C154.683 48.7988 154.58 48.2959 154.476 47.6154C153.293 48.7544 152.117 49.568 150.948 50.0562C149.351 50.7071 147.494 51.0325 145.379 51.0325C142.568 51.0325 140.43 50.3817 138.966 49.0799C137.516 47.7781 136.791 46.1731 136.791 44.2648C136.791 42.4749 137.317 41.003 138.367 39.8491C139.417 38.6953 141.355 37.8373 144.18 37.2751C147.568 36.5947 149.765 36.1213 150.771 35.855C151.777 35.574 152.842 35.2115 153.966 34.7678C153.966 33.6583 153.737 32.8817 153.278 32.4379C152.82 31.9941 152.013 31.7722 150.859 31.7722C149.38 31.7722 148.271 32.0089 147.531 32.4822C146.954 32.8521 146.488 33.5473 146.133 34.568ZM153.966 39.3166C152.723 39.7604 151.429 40.1524 150.083 40.4926C148.249 40.9808 147.087 41.4615 146.599 41.9349C146.096 42.4231 145.845 42.9778 145.845 43.5991C145.845 44.3092 146.089 44.8935 146.577 45.3521C147.08 45.7959 147.812 46.0178 148.774 46.0178C149.78 46.0178 150.712 45.7737 151.57 45.2855C152.442 44.7973 153.056 44.2056 153.411 43.5104C153.781 42.8003 153.966 41.8831 153.966 40.7589V39.3166ZM168.3 26.9349H176.754V30.7959C177.568 29.1243 178.404 27.9778 179.262 27.3565C180.135 26.7204 181.207 26.4024 182.479 26.4024C183.811 26.4024 185.268 26.8166 186.851 27.645L184.055 34.0799C182.99 33.6361 182.146 33.4142 181.525 33.4142C180.342 33.4142 179.425 33.9024 178.774 34.8787C177.842 36.2544 177.376 38.8284 177.376 42.6006V50.5H168.3V26.9349ZM201.562 17.9704V26.9349H206.533V33.5251H201.562V41.8905C201.562 42.8964 201.658 43.5621 201.851 43.8876C202.146 44.3905 202.664 44.642 203.404 44.642C204.07 44.642 205.001 44.4497 206.2 44.0651L206.865 50.3003C204.632 50.7885 202.546 51.0325 200.608 51.0325C198.359 51.0325 196.703 50.7441 195.638 50.1672C194.572 49.5902 193.781 48.7175 193.263 47.5488C192.76 46.3654 192.509 44.4571 192.509 41.824V33.5251H189.18V26.9349H192.509V22.608L201.562 17.9704Z" fill="#99BD00"/>
</g>
<defs>
<filter id="filter0_d_103_574" x="0.896739" y="-7.07396" width="261.074" height="79.1479" filterUnits="userSpaceOnUse" color-interpolation-filters="sRGB">
<feFlood flood-opacity="0" result="BackgroundImageFix"/>
<feColorMatrix in="SourceAlpha" type="matrix" values="0 0 0 0 0 0 0 0 0 0 0 0 0 0 0 0 0 0 127 0" result="hardAlpha"/>
<feOffset/>
<feGaussianBlur stdDeviation="3.78698"/>
<feComposite in2="hardAlpha" operator="out"/>
<feColorMatrix type="matrix" values="0 0 0 0 0 0 0 0 0 0 0 0 0 0 0 0 0 0 0.5 0"/>
<feBlend mode="normal" in2="BackgroundImageFix" result="effect1_dropShadow_103_574"/>
<feBlend mode="normal" in="SourceGraphic" in2="effect1_dropShadow_103_574" result="shape"/>
</filter>
</defs>
</svg>
