<svg width="250" height="250" viewBox="0 0 250 250" fill="none" xmlns="http://www.w3.org/2000/svg">
<path d="M40.104 229.166C31.8575 229.166 24.8479 226.28 19.0754 220.508C13.3028 214.735 10.4165 207.726 10.4165 199.479C10.4165 191.232 13.3028 184.223 19.0754 178.45C24.8479 172.678 31.8575 169.791 40.104 169.791C48.3505 169.791 55.3601 172.678 61.1327 178.45C66.9052 184.223 69.7915 191.232 69.7915 199.479C69.7915 207.726 66.9052 214.735 61.1327 220.508C55.3601 226.28 48.3505 229.166 40.104 229.166ZM40.104 213.541C44.2707 213.541 47.6561 212.239 50.2603 209.635C52.8644 207.031 54.1665 203.646 54.1665 199.479C54.1665 195.312 52.8644 191.927 50.2603 189.323C47.6561 186.719 44.2707 185.416 40.104 185.416C35.9373 185.416 32.5519 186.719 29.9478 189.323C27.3436 191.927 26.0415 195.312 26.0415 199.479C26.0415 203.646 27.3436 207.031 29.9478 209.635C32.5519 212.239 35.9373 213.541 40.104 213.541ZM74.9998 229.166C76.9096 226.91 78.6023 224.349 80.078 221.484C81.5537 218.62 82.6387 215.972 83.3332 213.541H113.021V135.416C113.021 128.899 110.7 123.32 106.06 118.68C101.419 114.039 95.8401 111.719 89.3228 111.719H36.979V154.166C34.5485 154.166 31.9009 154.514 29.0363 155.208C26.1717 155.903 23.6109 156.857 21.354 158.073V96.0936H53.9061V56.2498C53.9061 43.7498 58.42 32.9859 67.4478 23.9582C76.4755 14.9304 87.2394 10.4165 99.7394 10.4165C109.462 10.4165 118.142 12.9339 125.781 17.9686C133.42 23.0033 139.062 29.9478 142.708 38.8019L215.104 213.541H239.583V229.166H170.312V213.541H198.958L127.344 45.3123C124.739 39.2359 121.137 34.505 116.536 31.1196C111.936 27.7342 106.337 26.0415 99.7394 26.0415C91.4061 26.0415 84.288 28.9929 78.3853 34.8957C72.4825 40.7984 69.5311 47.9165 69.5311 56.2498V96.0936H89.3644C100.274 96.0936 109.548 99.913 117.187 107.552C124.826 115.191 128.646 124.479 128.646 135.416V229.166H74.9998Z" fill="#2A2722"/>
</svg>
