<svg width="120" height="120" viewBox="0 0 120 120" fill="none" xmlns="http://www.w3.org/2000/svg">
<path d="M35 45C32.25 45 29.8958 44.0208 27.9375 42.0625C25.9792 40.1042 25 37.75 25 35C25 32.25 25.9792 29.8958 27.9375 27.9375C29.8958 25.9792 32.25 25 35 25C37.75 25 40.1042 25.9792 42.0625 27.9375C44.0208 29.8958 45 32.25 45 35C45 37.75 44.0208 40.1042 42.0625 42.0625C40.1042 44.0208 37.75 45 35 45ZM25 110C23.5833 110 22.3958 109.521 21.4375 108.562C20.4792 107.604 20 106.417 20 105C17.25 105 14.8958 104.021 12.9375 102.062C10.9792 100.104 10 97.75 10 95V65H25V61.25C25 58.0833 26.0833 55.4167 28.25 53.25C30.4167 51.0833 33.0833 50 36.25 50C37.9167 50 39.4583 50.3333 40.875 51C42.2917 51.6667 43.5833 52.5833 44.75 53.75L51.75 61.5C52.4167 62.1667 53.0625 62.7917 53.6875 63.375C54.3125 63.9583 55 64.5 55.75 65H90V24.25C90 23.0833 89.5833 22.0833 88.75 21.25C87.9167 20.4167 86.9167 20 85.75 20C85.25 20 84.7708 20.1042 84.3125 20.3125C83.8542 20.5208 83.4167 20.8333 83 21.25L76.75 27.5C77.1667 28.9167 77.25 30.3125 77 31.6875C76.75 33.0625 76.25 34.3333 75.5 35.5L61.75 21.5C62.9167 20.75 64.1667 20.2708 65.5 20.0625C66.8333 19.8542 68.1667 20 69.5 20.5L75.75 14.25C77.0833 12.9167 78.6042 11.875 80.3125 11.125C82.0208 10.375 83.8333 10 85.75 10C89.75 10 93.125 11.375 95.875 14.125C98.625 16.875 100 20.25 100 24.25V65H110V95C110 97.75 109.021 100.104 107.062 102.062C105.104 104.021 102.75 105 100 105C100 106.417 99.5208 107.604 98.5625 108.562C97.6042 109.521 96.4167 110 95 110H25ZM20 95H100V75H20V95Z" fill="#49391D" fill-opacity="0.9"/>
</svg>
