<svg width="120" height="120" viewBox="0 0 120 120" fill="none" xmlns="http://www.w3.org/2000/svg">
<path d="M30 110C27.25 110 24.8958 109.021 22.9375 107.062C20.9792 105.104 20 102.75 20 100V20C20 17.25 20.9792 14.8958 22.9375 12.9375C24.8958 10.9792 27.25 10 30 10H100V20H90V30C90 31.4167 89.5208 32.6042 88.5625 33.5625C87.6042 34.5208 86.4167 35 85 35H45C43.5833 35 42.3958 34.5208 41.4375 33.5625C40.4792 32.6042 40 31.4167 40 30V20H30V100H50.25C47.0833 97.75 44.5833 94.8958 42.75 91.4375C40.9167 87.9792 40 84.1667 40 80V55H90V80C90 84.1667 89.0833 87.9792 87.25 91.4375C85.4167 94.8958 82.9167 97.75 79.75 100H100V110H30ZM65 95C69.1667 95 72.7083 93.5417 75.625 90.625C78.5417 87.7083 80 84.1667 80 80V65H50V80C50 84.1667 51.4583 87.7083 54.375 90.625C57.2917 93.5417 60.8333 95 65 95ZM65 50C66.4167 50 67.6042 49.5208 68.5625 48.5625C69.5208 47.6042 70 46.4167 70 45C70 43.5833 69.5208 42.3958 68.5625 41.4375C67.6042 40.4792 66.4167 40 65 40C63.5833 40 62.3958 40.4792 61.4375 41.4375C60.4792 42.3958 60 43.5833 60 45C60 46.4167 60.4792 47.6042 61.4375 48.5625C62.3958 49.5208 63.5833 50 65 50Z" fill="#49391D" fill-opacity="0.9"/>
</svg>
