<svg width="120" height="120" viewBox="0 0 120 120" fill="none" xmlns="http://www.w3.org/2000/svg">
<path d="M40 40V25H50V40H40ZM40 85V60H50V85H40ZM30 110C27.25 110 24.8958 109.021 22.9375 107.062C20.9792 105.104 20 102.75 20 100V20C20 17.25 20.9792 14.8958 22.9375 12.9375C24.8958 10.9792 27.25 10 30 10H90C92.75 10 95.1042 10.9792 97.0625 12.9375C99.0208 14.8958 100 17.25 100 20V100C100 102.75 99.0208 105.104 97.0625 107.062C95.1042 109.021 92.75 110 90 110H30ZM30 100H90V55H30V100ZM30 45H90V20H30V45Z" fill="#49391D" fill-opacity="0.9"/>
</svg>
