<svg width="120" height="120" viewBox="0 0 120 120" fill="none" xmlns="http://www.w3.org/2000/svg">
<path d="M66.5 103.625C66 104.042 65.4792 104.375 64.9375 104.625C64.3958 104.875 63.7917 105 63.125 105C62.4583 105 61.7917 104.854 61.125 104.562C60.4583 104.271 59.875 103.875 59.375 103.375C55.9583 99.7083 53.4375 95.9583 51.8125 92.125C50.1875 88.2917 49.375 84.25 49.375 80C49.375 76.9167 49.8333 73.6667 50.75 70.25C51.6667 66.8333 53.25 62.4167 55.5 57C57.4167 52.25 58.75 48.6042 59.5 46.0625C60.25 43.5208 60.625 41.1667 60.625 39C60.625 36.1667 60 33.5208 58.75 31.0625C57.5 28.6042 55.5417 26.125 52.875 23.625C52.375 23.125 51.9792 22.5417 51.6875 21.875C51.3958 21.2083 51.25 20.5417 51.25 19.875C51.25 19.2083 51.375 18.6042 51.625 18.0625C51.875 17.5208 52.2083 17 52.625 16.5C53.125 16 53.6875 15.625 54.3125 15.375C54.9375 15.125 55.5833 15 56.25 15C56.9167 15 57.5417 15.125 58.125 15.375C58.7083 15.625 59.25 15.9583 59.75 16.375C63.4167 19.7917 66.1458 23.375 67.9375 27.125C69.7292 30.875 70.625 34.8333 70.625 39C70.625 41.9167 70.1875 44.9792 69.3125 48.1875C68.4375 51.3958 66.9167 55.5833 64.75 60.75C62.6667 65.75 61.25 69.5833 60.5 72.25C59.75 74.9167 59.375 77.4583 59.375 79.875C59.375 82.7917 59.9792 85.6042 61.1875 88.3125C62.3958 91.0208 64.25 93.75 66.75 96.5C67.1667 97 67.5 97.5417 67.75 98.125C68 98.7083 68.125 99.3333 68.125 100C68.125 100.667 68 101.312 67.75 101.938C67.5 102.562 67.0833 103.125 66.5 103.625ZM90.875 103.625C90.375 104.042 89.8542 104.375 89.3125 104.625C88.7708 104.875 88.1667 105 87.5 105C86.8333 105 86.1667 104.854 85.5 104.562C84.8333 104.271 84.25 103.875 83.75 103.375C80.3333 99.7083 77.8125 95.9792 76.1875 92.1875C74.5625 88.3958 73.75 84.375 73.75 80.125C73.75 77.0417 74.2083 73.75 75.125 70.25C76.0417 66.75 77.625 62.3333 79.875 57C81.7917 52.25 83.125 48.625 83.875 46.125C84.625 43.625 85 41.2917 85 39.125C85 36.2917 84.375 33.6042 83.125 31.0625C81.875 28.5208 79.9167 26.0417 77.25 23.625C76.75 23.125 76.375 22.5625 76.125 21.9375C75.875 21.3125 75.75 20.6667 75.75 20C75.75 19.3333 75.8542 18.7292 76.0625 18.1875C76.2708 17.6458 76.5833 17.125 77 16.625C77.5 16.125 78.0833 15.7292 78.75 15.4375C79.4167 15.1458 80.0833 15 80.75 15C81.4167 15 82.0208 15.125 82.5625 15.375C83.1042 15.625 83.625 15.9583 84.125 16.375C87.7917 19.7917 90.5208 23.375 92.3125 27.125C94.1042 30.875 95 34.8333 95 39C95 41.9167 94.5625 44.9792 93.6875 48.1875C92.8125 51.3958 91.2917 55.625 89.125 60.875C87.0417 65.875 85.625 69.7083 84.875 72.375C84.125 75.0417 83.75 77.5417 83.75 79.875C83.75 82.7917 84.375 85.6458 85.625 88.4375C86.875 91.2292 88.75 93.9583 91.25 96.625C91.6667 97.125 91.9792 97.6667 92.1875 98.25C92.3958 98.8333 92.5 99.4167 92.5 100C92.5 100.667 92.375 101.333 92.125 102C91.875 102.667 91.4583 103.208 90.875 103.625ZM42.125 103.625C41.625 104.042 41.1042 104.375 40.5625 104.625C40.0208 104.875 39.4167 105 38.75 105C38.0833 105 37.4167 104.854 36.75 104.562C36.0833 104.271 35.5 103.875 35 103.375C31.5833 99.7083 29.0625 95.9792 27.4375 92.1875C25.8125 88.3958 25 84.375 25 80.125C25 77.0417 25.4583 73.75 26.375 70.25C27.2917 66.75 28.875 62.3333 31.125 57C33.0417 52.25 34.375 48.625 35.125 46.125C35.875 43.625 36.25 41.2917 36.25 39.125C36.25 36.2917 35.625 33.6042 34.375 31.0625C33.125 28.5208 31.1667 26.0417 28.5 23.625C27.9167 23.125 27.5 22.5625 27.25 21.9375C27 21.3125 26.875 20.6667 26.875 20C26.875 19.3333 27 18.7083 27.25 18.125C27.5 17.5417 27.8333 17 28.25 16.5C28.75 16 29.3125 15.625 29.9375 15.375C30.5625 15.125 31.2083 15 31.875 15C32.5417 15 33.1667 15.125 33.75 15.375C34.3333 15.625 34.875 15.9583 35.375 16.375C39.0417 19.7917 41.7708 23.3542 43.5625 27.0625C45.3542 30.7708 46.25 34.75 46.25 39C46.25 41.9167 45.8333 44.9792 45 48.1875C44.1667 51.3958 42.6667 55.5833 40.5 60.75C38.4167 65.75 37 69.5833 36.25 72.25C35.5 74.9167 35.125 77.4583 35.125 79.875C35.125 82.7917 35.7292 85.6458 36.9375 88.4375C38.1458 91.2292 40 93.9583 42.5 96.625C42.9167 97.125 43.2292 97.6667 43.4375 98.25C43.6458 98.8333 43.75 99.4167 43.75 100C43.75 100.667 43.625 101.333 43.375 102C43.125 102.667 42.7083 103.208 42.125 103.625Z" fill="#49391D" fill-opacity="0.9"/>
</svg>
