<svg width="120" height="120" viewBox="0 0 120 120" fill="none" xmlns="http://www.w3.org/2000/svg">
<path d="M22.125 50C23.2917 47 23.4792 44.3333 22.6875 42C21.8958 39.6667 20.5417 37.3333 18.625 35C15.875 31.6667 14.0625 28.5208 13.1875 25.5625C12.3125 22.6042 12.1667 19.0833 12.75 15H22.5C21.8333 18.1667 21.7292 20.75 22.1875 22.75C22.6458 24.75 23.8333 26.9167 25.75 29.25C28.9167 33.0833 30.9375 36.4792 31.8125 39.4375C32.6875 42.3958 32.7083 45.9167 31.875 50H22.125ZM42.125 50C43.2917 47 43.5 44.3333 42.75 42C42 39.6667 40.6667 37.3333 38.75 35C36 31.6667 34.1667 28.5208 33.25 25.5625C32.3333 22.6042 32.1667 19.0833 32.75 15H42.5C41.8333 18.1667 41.7292 20.75 42.1875 22.75C42.6458 24.75 43.8333 26.9167 45.75 29.25C48.9167 33.0833 50.9375 36.4792 51.8125 39.4375C52.6875 42.3958 52.7083 45.9167 51.875 50H42.125ZM62.125 50C63.2917 47 63.5 44.3333 62.75 42C62 39.6667 60.6667 37.3333 58.75 35C56 31.6667 54.1667 28.5208 53.25 25.5625C52.3333 22.6042 52.1667 19.0833 52.75 15H62.5C61.8333 18.1667 61.7292 20.75 62.1875 22.75C62.6458 24.75 63.8333 26.9167 65.75 29.25C68.9167 33.0833 70.9375 36.4792 71.8125 39.4375C72.6875 42.3958 72.7083 45.9167 71.875 50H62.125ZM25 100C20.8333 100 17.2917 98.5417 14.375 95.625C11.4583 92.7083 10 89.1667 10 85V60H80.125C80.5417 57.1667 81.6667 54.6875 83.5 52.5625C85.3333 50.4375 87.5833 48.9167 90.25 48L113.375 40.25L116.5 49.75L93.375 57.5C92.375 57.8333 91.5625 58.4375 90.9375 59.3125C90.3125 60.1875 90 61.1667 90 62.25V85C90 89.1667 88.5417 92.7083 85.625 95.625C82.7083 98.5417 79.1667 100 75 100H25ZM25 90H75C76.4167 90 77.6042 89.5208 78.5625 88.5625C79.5208 87.6042 80 86.4167 80 85V70H20V85C20 86.4167 20.4792 87.6042 21.4375 88.5625C22.3958 89.5208 23.5833 90 25 90Z" fill="#49391D" fill-opacity="0.9"/>
</svg>
