<svg width="120" height="120" viewBox="0 0 120 120" fill="none" xmlns="http://www.w3.org/2000/svg">
<path d="M20 100C17.25 100 14.8958 99.0208 12.9375 97.0625C10.9792 95.1042 10 92.75 10 90V30C10 27.25 10.9792 24.8958 12.9375 22.9375C14.8958 20.9792 17.25 20 20 20H100C102.75 20 105.104 20.9792 107.062 22.9375C109.021 24.8958 110 27.25 110 30V90C110 92.75 109.021 95.1042 107.062 97.0625C105.104 99.0208 102.75 100 100 100H20ZM20 90H100V30H20V90ZM25 85H75V35H25V85ZM90 85C91.4167 85 92.6042 84.5208 93.5625 83.5625C94.5208 82.6042 95 81.4167 95 80C95 78.5833 94.5208 77.3958 93.5625 76.4375C92.6042 75.4792 91.4167 75 90 75C88.5833 75 87.3958 75.4792 86.4375 76.4375C85.4792 77.3958 85 78.5833 85 80C85 81.4167 85.4792 82.6042 86.4375 83.5625C87.3958 84.5208 88.5833 85 90 85ZM35 75V45H65V75H35ZM90 65C91.4167 65 92.6042 64.5208 93.5625 63.5625C94.5208 62.6042 95 61.4167 95 60C95 58.5833 94.5208 57.3958 93.5625 56.4375C92.6042 55.4792 91.4167 55 90 55C88.5833 55 87.3958 55.4792 86.4375 56.4375C85.4792 57.3958 85 58.5833 85 60C85 61.4167 85.4792 62.6042 86.4375 63.5625C87.3958 64.5208 88.5833 65 90 65ZM90 45C91.4167 45 92.6042 44.5208 93.5625 43.5625C94.5208 42.6042 95 41.4167 95 40C95 38.5833 94.5208 37.3958 93.5625 36.4375C92.6042 35.4792 91.4167 35 90 35C88.5833 35 87.3958 35.4792 86.4375 36.4375C85.4792 37.3958 85 38.5833 85 40C85 41.4167 85.4792 42.6042 86.4375 43.5625C87.3958 44.5208 88.5833 45 90 45Z" fill="#49391D" fill-opacity="0.9"/>
</svg>
