<svg width="120" height="120" viewBox="0 0 120 120" fill="none" xmlns="http://www.w3.org/2000/svg">
<path d="M30 110C27.25 110 24.8958 109.021 22.9375 107.062C20.9792 105.104 20 102.75 20 100V50C20 47.25 20.9792 44.8958 22.9375 42.9375C24.8958 40.9792 27.25 40 30 40H35V30C35 23.0833 37.4375 17.1875 42.3125 12.3125C47.1875 7.4375 53.0833 5 60 5C66.9167 5 72.8125 7.4375 77.6875 12.3125C82.5625 17.1875 85 23.0833 85 30V40H90C92.75 40 95.1042 40.9792 97.0625 42.9375C99.0208 44.8958 100 47.25 100 50V100C100 102.75 99.0208 105.104 97.0625 107.062C95.1042 109.021 92.75 110 90 110H30ZM30 100H90V50H30V100ZM60 85C62.75 85 65.1042 84.0208 67.0625 82.0625C69.0208 80.1042 70 77.75 70 75C70 72.25 69.0208 69.8958 67.0625 67.9375C65.1042 65.9792 62.75 65 60 65C57.25 65 54.8958 65.9792 52.9375 67.9375C50.9792 69.8958 50 72.25 50 75C50 77.75 50.9792 80.1042 52.9375 82.0625C54.8958 84.0208 57.25 85 60 85ZM45 40H75V30C75 25.8333 73.5417 22.2917 70.625 19.375C67.7083 16.4583 64.1667 15 60 15C55.8333 15 52.2917 16.4583 49.375 19.375C46.4583 22.2917 45 25.8333 45 30V40Z" fill="#49391D" fill-opacity="0.9"/>
</svg>
