<svg width="120" height="120" viewBox="0 0 120 120" fill="none" xmlns="http://www.w3.org/2000/svg">
<path d="M40 90C38.5833 90 37.3958 89.5208 36.4375 88.5625C35.4792 87.6042 35 86.4167 35 85C35 83.5833 35.4792 82.3958 36.4375 81.4375C37.3958 80.4792 38.5833 80 40 80C41.4167 80 42.6042 80.4792 43.5625 81.4375C44.5208 82.3958 45 83.5833 45 85C45 86.4167 44.5208 87.6042 43.5625 88.5625C42.6042 89.5208 41.4167 90 40 90ZM60 90C58.5833 90 57.3958 89.5208 56.4375 88.5625C55.4792 87.6042 55 86.4167 55 85C55 83.5833 55.4792 82.3958 56.4375 81.4375C57.3958 80.4792 58.5833 80 60 80C61.4167 80 62.6042 80.4792 63.5625 81.4375C64.5208 82.3958 65 83.5833 65 85C65 86.4167 64.5208 87.6042 63.5625 88.5625C62.6042 89.5208 61.4167 90 60 90ZM80 90C78.5833 90 77.3958 89.5208 76.4375 88.5625C75.4792 87.6042 75 86.4167 75 85C75 83.5833 75.4792 82.3958 76.4375 81.4375C77.3958 80.4792 78.5833 80 80 80C81.4167 80 82.6042 80.4792 83.5625 81.4375C84.5208 82.3958 85 83.5833 85 85C85 86.4167 84.5208 87.6042 83.5625 88.5625C82.6042 89.5208 81.4167 90 80 90ZM25 70V60C25 51.1667 27.8333 43.5 33.5 37C39.1667 30.5 46.3333 26.6667 55 25.5V15H65V25.5C73.6667 26.6667 80.8333 30.5 86.5 37C92.1667 43.5 95 51.1667 95 60V70H25ZM35 60H85C85 53.0833 82.5625 47.1875 77.6875 42.3125C72.8125 37.4375 66.9167 35 60 35C53.0833 35 47.1875 37.4375 42.3125 42.3125C37.4375 47.1875 35 53.0833 35 60ZM40 105C38.5833 105 37.3958 104.521 36.4375 103.562C35.4792 102.604 35 101.417 35 100C35 98.5833 35.4792 97.3958 36.4375 96.4375C37.3958 95.4792 38.5833 95 40 95C41.4167 95 42.6042 95.4792 43.5625 96.4375C44.5208 97.3958 45 98.5833 45 100C45 101.417 44.5208 102.604 43.5625 103.562C42.6042 104.521 41.4167 105 40 105ZM60 105C58.5833 105 57.3958 104.521 56.4375 103.562C55.4792 102.604 55 101.417 55 100C55 98.5833 55.4792 97.3958 56.4375 96.4375C57.3958 95.4792 58.5833 95 60 95C61.4167 95 62.6042 95.4792 63.5625 96.4375C64.5208 97.3958 65 98.5833 65 100C65 101.417 64.5208 102.604 63.5625 103.562C62.6042 104.521 61.4167 105 60 105ZM80 105C78.5833 105 77.3958 104.521 76.4375 103.562C75.4792 102.604 75 101.417 75 100C75 98.5833 75.4792 97.3958 76.4375 96.4375C77.3958 95.4792 78.5833 95 80 95C81.4167 95 82.6042 95.4792 83.5625 96.4375C84.5208 97.3958 85 98.5833 85 100C85 101.417 84.5208 102.604 83.5625 103.562C82.6042 104.521 81.4167 105 80 105Z" fill="#49391D" fill-opacity="0.9"/>
</svg>
