<svg width="120" height="120" viewBox="0 0 120 120" fill="none" xmlns="http://www.w3.org/2000/svg">
<path d="M80 35C81.4167 35 82.6042 34.5208 83.5625 33.5625C84.5208 32.6042 85 31.4167 85 30C85 28.5833 84.5208 27.3958 83.5625 26.4375C82.6042 25.4792 81.4167 25 80 25C78.5833 25 77.3958 25.4792 76.4375 26.4375C75.4792 27.3958 75 28.5833 75 30C75 31.4167 75.4792 32.6042 76.4375 33.5625C77.3958 34.5208 78.5833 35 80 35ZM60 35C61.4167 35 62.6042 34.5208 63.5625 33.5625C64.5208 32.6042 65 31.4167 65 30C65 28.5833 64.5208 27.3958 63.5625 26.4375C62.6042 25.4792 61.4167 25 60 25C58.5833 25 57.3958 25.4792 56.4375 26.4375C55.4792 27.3958 55 28.5833 55 30C55 31.4167 55.4792 32.6042 56.4375 33.5625C57.3958 34.5208 58.5833 35 60 35ZM40 35C41.4167 35 42.6042 34.5208 43.5625 33.5625C44.5208 32.6042 45 31.4167 45 30C45 28.5833 44.5208 27.3958 43.5625 26.4375C42.6042 25.4792 41.4167 25 40 25C38.5833 25 37.3958 25.4792 36.4375 26.4375C35.4792 27.3958 35 28.5833 35 30C35 31.4167 35.4792 32.6042 36.4375 33.5625C37.3958 34.5208 38.5833 35 40 35ZM25 50V95H95V50H25ZM50 70H70V60H50V70ZM25 105C22.25 105 19.8958 104.021 17.9375 102.062C15.9792 100.104 15 97.75 15 95V25C15 22.25 15.9792 19.8958 17.9375 17.9375C19.8958 15.9792 22.25 15 25 15H95C97.75 15 100.104 15.9792 102.062 17.9375C104.021 19.8958 105 22.25 105 25V95C105 97.75 104.021 100.104 102.062 102.062C100.104 104.021 97.75 105 95 105H25Z" fill="#49391D" fill-opacity="0.9"/>
</svg>
