<svg width="120" height="120" viewBox="0 0 120 120" fill="none" xmlns="http://www.w3.org/2000/svg">
<path d="M40 105V95H20C17.25 95 14.8958 94.0208 12.9375 92.0625C10.9792 90.1042 10 87.75 10 85V25C10 22.25 10.9792 19.8958 12.9375 17.9375C14.8958 15.9792 17.25 15 20 15H100C102.75 15 105.104 15.9792 107.062 17.9375C109.021 19.8958 110 22.25 110 25V85C110 87.75 109.021 90.1042 107.062 92.0625C105.104 94.0208 102.75 95 100 95H80V105H40ZM20 85H100V25H20V85Z" fill="#49391D" fill-opacity="0.9"/>
</svg>
