<svg width="120" height="120" viewBox="0 0 120 120" fill="none" xmlns="http://www.w3.org/2000/svg">
<path d="M30 105C27.25 105 24.8958 104.021 22.9375 102.062C20.9792 100.104 20 97.75 20 95V52.25C16.9167 50.4167 14.4792 47.9792 12.6875 44.9375C10.8958 41.8958 10 38.5833 10 35C10 29.5 11.9583 24.7917 15.875 20.875C19.7917 16.9583 24.5 15 30 15H90C95.5 15 100.208 16.9583 104.125 20.875C108.042 24.7917 110 29.5 110 35C110 38.5833 109.104 41.8958 107.312 44.9375C105.521 47.9792 103.083 50.4167 100 52.25V95C100 97.75 99.0208 100.104 97.0625 102.062C95.1042 104.021 92.75 105 90 105H30ZM30 95H90V46.5L95 43.5C96.5 42.5833 97.7083 41.375 98.625 39.875C99.5417 38.375 100 36.75 100 35C100 32.25 99.0208 29.8958 97.0625 27.9375C95.1042 25.9792 92.75 25 90 25H30C27.25 25 24.8958 25.9792 22.9375 27.9375C20.9792 29.8958 20 32.25 20 35C20 36.8333 20.4375 38.5208 21.3125 40.0625C22.1875 41.6042 23.4167 42.8333 25 43.75L30 46.5V95ZM56.5 83.5C57.5 84.4167 58.6875 84.875 60.0625 84.875C61.4375 84.875 62.5833 84.4167 63.5 83.5L78.5 68.5C79.5 67.5 80 66.3125 80 64.9375C80 63.5625 79.5 62.4167 78.5 61.5L63.5 46.5C62.5833 45.5 61.4375 45 60.0625 45C58.6875 45 57.5 45.5 56.5 46.5L41.5 61.5C40.5833 62.4167 40.125 63.5625 40.125 64.9375C40.125 66.3125 40.5833 67.5 41.5 68.5L56.5 83.5ZM60 73L52 65L60 57L68 65L60 73Z" fill="#49391D" fill-opacity="0.9"/>
</svg>
