<svg width="120" height="120" viewBox="0 0 120 120" fill="none" xmlns="http://www.w3.org/2000/svg">
<path d="M30 110C27.25 110 24.8958 109.021 22.9375 107.062C20.9792 105.104 20 102.75 20 100V20C20 17.25 20.9792 14.8958 22.9375 12.9375C24.8958 10.9792 27.25 10 30 10H90C92.75 10 95.1042 10.9792 97.0625 12.9375C99.0208 14.8958 100 17.25 100 20V100C100 102.75 99.0208 105.104 97.0625 107.062C95.1042 109.021 92.75 110 90 110H30ZM30 100H90V20H30V100ZM60 95C66.9167 95 72.8125 92.5625 77.6875 87.6875C82.5625 82.8125 85 76.9167 85 70C85 63.0833 82.5625 57.1875 77.6875 52.3125C72.8125 47.4375 66.9167 45 60 45C53.0833 45 47.1875 47.4375 42.3125 52.3125C37.4375 57.1875 35 63.0833 35 70C35 76.9167 37.4375 82.8125 42.3125 87.6875C47.1875 92.5625 53.0833 95 60 95ZM60 86.5C57.8333 86.5 55.7292 86.1042 53.6875 85.3125C51.6458 84.5208 49.8333 83.3333 48.25 81.75L71.75 58.25C73.3333 59.8333 74.5208 61.6458 75.3125 63.6875C76.1042 65.7292 76.5 67.8333 76.5 70C76.5 74.5833 74.8958 78.4792 71.6875 81.6875C68.4792 84.8958 64.5833 86.5 60 86.5ZM40 35C41.4167 35 42.6042 34.5208 43.5625 33.5625C44.5208 32.6042 45 31.4167 45 30C45 28.5833 44.5208 27.3958 43.5625 26.4375C42.6042 25.4792 41.4167 25 40 25C38.5833 25 37.3958 25.4792 36.4375 26.4375C35.4792 27.3958 35 28.5833 35 30C35 31.4167 35.4792 32.6042 36.4375 33.5625C37.3958 34.5208 38.5833 35 40 35ZM55 35C56.4167 35 57.6042 34.5208 58.5625 33.5625C59.5208 32.6042 60 31.4167 60 30C60 28.5833 59.5208 27.3958 58.5625 26.4375C57.6042 25.4792 56.4167 25 55 25C53.5833 25 52.3958 25.4792 51.4375 26.4375C50.4792 27.3958 50 28.5833 50 30C50 31.4167 50.4792 32.6042 51.4375 33.5625C52.3958 34.5208 53.5833 35 55 35Z" fill="#49391D" fill-opacity="0.9"/>
</svg>
