<svg width="120" height="120" viewBox="0 0 120 120" fill="none" xmlns="http://www.w3.org/2000/svg">
<path d="M46.5 53.875C46.5 55.4583 46.7708 57 47.3125 58.5C47.8542 60 48.625 61.375 49.625 62.625C49.7917 61.625 50.125 60.6458 50.625 59.6875C51.125 58.7292 51.75 57.9167 52.5 57.25L60 50L67.375 57.375C68.125 58.0417 68.75 58.8333 69.25 59.75C69.75 60.6667 70.0833 61.625 70.25 62.625C71.1667 61.375 71.9792 60.0417 72.6875 58.625C73.3958 57.2083 73.75 55.7083 73.75 54.125C73.75 52.5417 73.5 51.0208 73 49.5625C72.5 48.1042 71.75 46.75 70.75 45.5C69.8333 45.9167 68.8958 46.25 67.9375 46.5C66.9792 46.75 66 46.875 65 46.875C62.5 46.875 60.2083 46.1667 58.125 44.75C56.0417 43.3333 54.4583 41.4583 53.375 39.125C52.375 40.125 51.4583 41.1875 50.625 42.3125C49.7917 43.4375 49.0625 44.625 48.4375 45.875C47.8125 47.125 47.3333 48.4167 47 49.75C46.6667 51.0833 46.5 52.4583 46.5 53.875ZM60 60.5L57.875 62.625C57.5417 62.9583 57.3125 63.2917 57.1875 63.625C57.0625 63.9583 57 64.3333 57 64.75C57 65.5833 57.2917 66.25 57.875 66.75C58.4583 67.25 59.1667 67.5 60 67.5C60.8333 67.5 61.5417 67.25 62.125 66.75C62.7083 66.25 63 65.5833 63 64.75C63 64.3333 62.9375 63.9583 62.8125 63.625C62.6875 63.2917 62.4583 62.9583 62.125 62.625L60 60.5ZM60 25V34.5C60 35.9167 60.5 37.1042 61.5 38.0625C62.5 39.0208 63.7083 39.5 65.125 39.5C66.0417 39.5 66.875 39.2292 67.625 38.6875C68.375 38.1458 69.0417 37.5 69.625 36.75L70.5 35.5C73.9167 37.4167 76.5625 40.0208 78.4375 43.3125C80.3125 46.6042 81.25 50.2083 81.25 54.125C81.25 59.9583 79.1667 64.8958 75 68.9375C70.8333 72.9792 65.8333 75 60 75C54.1667 75 49.2083 72.9583 45.125 68.875C41.0417 64.7917 39 59.8333 39 54C39 47.5833 41.0417 41.875 45.125 36.875C49.2083 31.875 54.1667 27.9167 60 25ZM30 110C27.25 110 24.8958 109.021 22.9375 107.062C20.9792 105.104 20 102.75 20 100V30C20 24.5 21.9583 19.7917 25.875 15.875C29.7917 11.9583 34.5 10 40 10H80C85.5 10 90.2083 11.9583 94.125 15.875C98.0417 19.7917 100 24.5 100 30V100C100 102.75 99.0208 105.104 97.0625 107.062C95.1042 109.021 92.75 110 90 110H30ZM30 90V100H90V90C87.5 90 85.5 90.8333 84 92.5C82.5 94.1667 79.5 95 75 95C70.5 95 67.5625 94.1667 66.1875 92.5C64.8125 90.8333 62.75 90 60 90C57.25 90 55.1875 90.8333 53.8125 92.5C52.4375 94.1667 49.5 95 45 95C40.5 95 37.5625 94.1667 36.1875 92.5C34.8125 90.8333 32.75 90 30 90ZM45 85C47.75 85 49.8125 84.1667 51.1875 82.5C52.5625 80.8333 55.5 80 60 80C64.5 80 67.5 80.8333 69 82.5C70.5 84.1667 72.5 85 75 85C77.5 85 79.5 84.1667 81 82.5C82.5 80.8333 85.5 80 90 80V30C90 27.25 89.0208 24.8958 87.0625 22.9375C85.1042 20.9792 82.75 20 80 20H40C37.25 20 34.8958 20.9792 32.9375 22.9375C30.9792 24.8958 30 27.25 30 30V80C34.5 80 37.4375 80.8333 38.8125 82.5C40.1875 84.1667 42.25 85 45 85Z" fill="#49391D" fill-opacity="0.9"/>
</svg>
